<svg xmlns="http://www.w3.org/2000/svg" xml:space="preserve" width="128" height="128"><g style="opacity:1;stroke-width:0;stroke-dasharray:none"><path d="M485.908 223.264C370.415 222.29 326.237 275.58 275.1 386.367c-23.342 50.569-67.446 88.451-66.848 153.133 1.624 175.692 201.9 204.176 331.748 204.176S870.124 715.192 871.748 539.5c.598-64.682-43.506-102.564-66.848-153.133C746.458 259.755 697.104 208.24 540 226.994c-19.638-2.344-37.593-3.591-54.092-3.73z" style="display:inline;opacity:1;fill:#e9afaf;stroke:#2b0000;stroke-width:0;stroke-dasharray:none" transform="translate(-40.188 -29.28)scale(.19294)"/><path d="M485.908 223.264c-102.062-.86-148.425 40.862-193.12 126.986.486-.29 41.516-24.767 59.505-23.19 16.736 1.468 30.288 34.294 38.64 29.471 7.397-4.27-4.283-25.576-4.283-25.576s24.957 29.79 31.881 26.432c4.75-2.985-1.187-21.895-1.187-21.895s39.944 34.496 49.187 30.14c5.645-2.66-4.488-18.175-4.488-18.175S538.747 401.859 540 375.83c1.253 26.03 77.957-28.373 77.957-28.373s-10.133 15.516-4.488 18.176c9.243 4.355 49.187-30.14 49.187-30.14s-5.938 18.91-1.187 21.894c6.924 3.358 31.88-26.432 31.88-26.432s-11.679 21.306-4.283 25.576c8.353 4.823 21.905-28.003 38.641-29.47 17.99-1.578 59.02 22.898 59.506 23.189-44.696-86.124-91.059-127.846-193.121-126.986-16.5.139-34.454 1.386-54.092 3.73-19.638-2.344-37.593-3.591-54.092-3.73z" style="display:inline;opacity:1;fill:#f55;stroke:#2b0000;stroke-width:0;stroke-dasharray:none" transform="translate(-40.188 -29.28)scale(.19294)"/><path d="M405.986 431.863a63.834 69.41 0 0 0-63.834 69.41 63.834 69.41 0 0 0 63.834 69.41 63.834 69.41 0 0 0 63.834-69.41 63.834 69.41 0 0 0-63.834-69.41zm268.028 0a63.834 69.41 0 0 0-63.834 69.41 63.834 69.41 0 0 0 63.834 69.41 63.834 69.41 0 0 0 63.834-69.41 63.834 69.41 0 0 0-63.834-69.41zM540 540s-41.318 0-42.418 21.27c-1.462 28.277 31.451 36.66 31.451 36.66l.547 29.234s-10.938.792-20.79-4.615c-11.297-6.2-21.94-18.46-26.179-14.049-9.47 9.854 10.069 26.134 24.102 33.172 15.1 7.573 33.287 8.564 33.287 8.564s18.187-.99 33.287-8.564c14.033-7.038 33.573-23.318 24.102-33.172-4.24-4.41-14.882 7.85-26.178 14.049-9.853 5.407-20.791 4.615-20.791 4.615l.547-29.234s32.913-8.383 31.451-36.66C581.318 540 540 540 540 540Z" style="opacity:1;fill:#2b0000;stroke:#2b0000;stroke-width:0;stroke-dasharray:none" transform="translate(-40.188 -29.28)scale(.19294)"/><path d="M314.002 584.813a21.807 15.66 0 0 0-21.807 15.66 21.807 15.66 0 0 0 21.807 15.66 21.807 15.66 0 0 0 21.807-15.66 21.807 15.66 0 0 0-21.807-15.66zm451.996 0a21.807 15.66 0 0 0-21.807 15.66 21.807 15.66 0 0 0 21.807 15.66 21.807 15.66 0 0 0 21.807-15.66 21.807 15.66 0 0 0-21.807-15.66z" style="opacity:1;fill:#ff8080;stroke:#2b0000;stroke-width:0;stroke-dasharray:none" transform="translate(-40.188 -29.28)scale(.19294)"/><path d="M500.132 460.9a6.4 6.4 0 0 0-3.976 1.384 4.89 4.89 0 0 0-.99 6.608l5.942 8.616a5.984 5.984 0 0 0 9.189.803l.05-.05a6.53 6.53 0 0 0 .202-8.956l-5.662-6.286a6.4 6.4 0 0 0-4.755-2.118zm149.928 0a6.4 6.4 0 0 0-4.756 2.119l-5.663 6.286a6.53 6.53 0 0 0 .203 8.955l.05.051a5.984 5.984 0 0 0 9.188-.803l5.942-8.616a4.89 4.89 0 0 0-.99-6.608 6.4 6.4 0 0 0-3.974-1.383z" style="opacity:1;fill:#fff;fill-opacity:1;stroke:#2b0000;stroke-width:0;stroke-dasharray:none" transform="matrix(.28065 0 0 .30443 -97.4 -81.158)"/></g></svg>